<?xml version="1.0" ?><svg enable-background="new 0 0 52 52" id="Layer_1" version="1.1" viewBox="0 0 52 52" xml:space="preserve" xmlns="http://www.w3.org/2000/svg" xmlns:xlink="http://www.w3.org/1999/xlink"><g><g><path d="M20.0029297,18.9996338h3c0.5522461,0,1-0.4472656,1-1s-0.4477539-1-1-1h-3c-0.5522461,0-1,0.4472656-1,1    S19.4506836,18.9996338,20.0029297,18.9996338z"/></g><g><path d="M9.8901367,19.9996338v12c0,0.352478-0.0722046,0.6859131-0.1843872,1.0003662h21.2962036V19H9.7059937    C9.8179932,19.314209,9.8901367,19.6474609,9.8901367,19.9996338z"/></g><g><path d="M49,13c-3.4699707,0-6.7299805,1.3499756-9.2099609,3.8299561    C38.3900146,18.2299805,36.6199951,19,34.7999878,19h-1.7980347v14h5.0480347C40.4400024,36.7199707,44.5800171,39,49,39    c0.5499878,0,1-0.4400024,1-1V14C50,13.4499512,49.5499878,13,49,13z" fill="#3A92CC"/></g><g><path d="M6.8900146,19H5.0599976C3.3699951,19,2,20.2199707,2,21.7099609v8.5800171C2,31.789978,3.3699951,33,5.0599976,33    h1.8300171c0.5499878,0,1-0.4400024,1-1V20C7.8900146,19.4499512,7.4400024,19,6.8900146,19z"/></g></g></svg>